<svg xmlns="http://www.w3.org/2000/svg" version="1.1" xmlns:xlink="http://www.w3.org/1999/xlink" xmlns:svgjs="http://svgjs.com/svgjs" width="1440" height="560" preserveAspectRatio="none" viewBox="0 0 1440 560"><g mask="url(&quot;#SvgjsMask6036&quot;)" fill="none"><rect width="1440" height="560" x="0" y="0" fill="url(#SvgjsRadialGradient6037)"></rect><g mask="url(&quot;#SvgjsMask6039&quot;)"><path d="M387.5 287.5L412.5 262.5L437.5 262.5L462.5 262.5L487.5 262.5L512.5 262.5L537.5 262.5M337.5 287.5L362.5 262.5L387.5 262.5L412.5 237.5L437.5 237.5L462.5 237.5L487.5 237.5M237.5 287.5L262.5 312.5L287.5 312.5L312.5 312.5L337.5 312.5M362.5 287.5L387.5 312.5M437.5 287.5L462.5 312.5L487.5 312.5M-12.5 287.5L12.5 287.5L37.5 287.5L62.5 287.5L87.5 287.5L112.5 287.5L137.5 287.5L162.5 287.5L187.5 287.5L212.5 287.5L237.5 287.5L262.5 287.5L287.5 287.5L312.5 287.5L337.5 287.5L362.5 287.5L387.5 287.5L412.5 287.5L437.5 287.5L462.5 287.5" stroke="url(#SvgjsLinearGradient6038)" stroke-width="4.17"></path><path d="M456.25 287.5 a6.25 6.25 0 1 0 12.5 0 a6.25 6.25 0 1 0 -12.5 0zM531.25 262.5 a6.25 6.25 0 1 0 12.5 0 a6.25 6.25 0 1 0 -12.5 0zM481.25 237.5 a6.25 6.25 0 1 0 12.5 0 a6.25 6.25 0 1 0 -12.5 0zM331.25 312.5 a6.25 6.25 0 1 0 12.5 0 a6.25 6.25 0 1 0 -12.5 0zM381.25 312.5 a6.25 6.25 0 1 0 12.5 0 a6.25 6.25 0 1 0 -12.5 0zM481.25 312.5 a6.25 6.25 0 1 0 12.5 0 a6.25 6.25 0 1 0 -12.5 0z" fill="url(#SvgjsLinearGradient6038)"></path><path d="M137.5 262.5L162.5 237.5L187.5 237.5M87.5 237.5L112.5 262.5M112.5 237.5L137.5 237.5M-12.5 262.5L12.5 262.5L37.5 262.5L62.5 262.5L87.5 237.5L112.5 237.5L137.5 262.5L162.5 262.5L187.5 262.5" stroke="url(#SvgjsLinearGradient6038)" stroke-width="4.17"></path><path d="M181.25 262.5 a6.25 6.25 0 1 0 12.5 0 a6.25 6.25 0 1 0 -12.5 0zM181.25 237.5 a6.25 6.25 0 1 0 12.5 0 a6.25 6.25 0 1 0 -12.5 0zM106.25 262.5 a6.25 6.25 0 1 0 12.5 0 a6.25 6.25 0 1 0 -12.5 0zM131.25 237.5 a6.25 6.25 0 1 0 12.5 0 a6.25 6.25 0 1 0 -12.5 0z" fill="url(#SvgjsLinearGradient6038)"></path><path d="M387.5 362.5L412.5 337.5L437.5 337.5L462.5 337.5L487.5 337.5M587.5 362.5L612.5 337.5L637.5 337.5L662.5 337.5M337.5 362.5L362.5 337.5L387.5 337.5M162.5 362.5L187.5 337.5M562.5 362.5L587.5 387.5M237.5 362.5L262.5 337.5M-12.5 312.5L12.5 312.5L37.5 312.5L62.5 312.5L87.5 312.5L112.5 337.5L137.5 337.5L162.5 362.5L187.5 362.5L212.5 362.5L237.5 362.5L262.5 362.5L287.5 362.5L312.5 362.5L337.5 362.5L362.5 362.5L387.5 362.5L412.5 362.5L437.5 362.5L462.5 362.5L487.5 362.5L512.5 362.5L537.5 362.5L562.5 362.5L587.5 362.5L612.5 362.5L637.5 362.5" stroke="url(#SvgjsLinearGradient6038)" stroke-width="4.17"></path><path d="M631.25 362.5 a6.25 6.25 0 1 0 12.5 0 a6.25 6.25 0 1 0 -12.5 0zM481.25 337.5 a6.25 6.25 0 1 0 12.5 0 a6.25 6.25 0 1 0 -12.5 0zM656.25 337.5 a6.25 6.25 0 1 0 12.5 0 a6.25 6.25 0 1 0 -12.5 0zM381.25 337.5 a6.25 6.25 0 1 0 12.5 0 a6.25 6.25 0 1 0 -12.5 0zM181.25 337.5 a6.25 6.25 0 1 0 12.5 0 a6.25 6.25 0 1 0 -12.5 0zM581.25 387.5 a6.25 6.25 0 1 0 12.5 0 a6.25 6.25 0 1 0 -12.5 0zM256.25 337.5 a6.25 6.25 0 1 0 12.5 0 a6.25 6.25 0 1 0 -12.5 0z" fill="url(#SvgjsLinearGradient6038)"></path><path d="M412.5 212.5L437.5 187.5M487.5 212.5L512.5 187.5L537.5 187.5L562.5 187.5M287.5 212.5L312.5 237.5L337.5 237.5L362.5 237.5M337.5 212.5L362.5 187.5M237.5 212.5L262.5 237.5L287.5 237.5M-12.5 237.5L12.5 237.5L37.5 237.5L62.5 237.5L87.5 212.5L112.5 212.5L137.5 212.5L162.5 212.5L187.5 212.5L212.5 212.5L237.5 212.5L262.5 212.5L287.5 212.5L312.5 212.5L337.5 212.5L362.5 212.5L387.5 212.5L412.5 212.5L437.5 212.5L462.5 212.5L487.5 212.5L512.5 212.5" stroke="url(#SvgjsLinearGradient6038)" stroke-width="4.17"></path><path d="M506.25 212.5 a6.25 6.25 0 1 0 12.5 0 a6.25 6.25 0 1 0 -12.5 0zM431.25 187.5 a6.25 6.25 0 1 0 12.5 0 a6.25 6.25 0 1 0 -12.5 0zM556.25 187.5 a6.25 6.25 0 1 0 12.5 0 a6.25 6.25 0 1 0 -12.5 0zM356.25 237.5 a6.25 6.25 0 1 0 12.5 0 a6.25 6.25 0 1 0 -12.5 0zM356.25 187.5 a6.25 6.25 0 1 0 12.5 0 a6.25 6.25 0 1 0 -12.5 0zM281.25 237.5 a6.25 6.25 0 1 0 12.5 0 a6.25 6.25 0 1 0 -12.5 0z" fill="url(#SvgjsLinearGradient6038)"></path><path d="M362.5 387.5L387.5 412.5L412.5 412.5L437.5 412.5L462.5 387.5M337.5 387.5L362.5 412.5L387.5 437.5L412.5 437.5L437.5 437.5M312.5 387.5L337.5 412.5L362.5 437.5M262.5 387.5L287.5 412.5L312.5 412.5L337.5 437.5L362.5 462.5L387.5 462.5M-12.5 337.5L12.5 337.5L37.5 337.5L62.5 337.5L87.5 337.5L112.5 362.5L137.5 362.5L162.5 387.5L187.5 387.5L212.5 387.5L237.5 387.5L262.5 387.5L287.5 387.5L312.5 387.5L337.5 387.5L362.5 387.5L387.5 387.5L412.5 387.5" stroke="url(#SvgjsLinearGradient6038)" stroke-width="4.17"></path><path d="M406.25 387.5 a6.25 6.25 0 1 0 12.5 0 a6.25 6.25 0 1 0 -12.5 0zM456.25 387.5 a6.25 6.25 0 1 0 12.5 0 a6.25 6.25 0 1 0 -12.5 0zM431.25 437.5 a6.25 6.25 0 1 0 12.5 0 a6.25 6.25 0 1 0 -12.5 0zM356.25 437.5 a6.25 6.25 0 1 0 12.5 0 a6.25 6.25 0 1 0 -12.5 0zM381.25 462.5 a6.25 6.25 0 1 0 12.5 0 a6.25 6.25 0 1 0 -12.5 0z" fill="url(#SvgjsLinearGradient6038)"></path><path d="M12.5 187.5L37.5 212.5M37.5 187.5L62.5 162.5L87.5 162.5M112.5 187.5L137.5 162.5M-12.5 212.5L12.5 187.5L37.5 187.5L62.5 187.5L87.5 187.5L112.5 187.5L137.5 187.5L162.5 187.5L187.5 187.5" stroke="url(#SvgjsLinearGradient6038)" stroke-width="4.17"></path><path d="M181.25 187.5 a6.25 6.25 0 1 0 12.5 0 a6.25 6.25 0 1 0 -12.5 0zM31.25 212.5 a6.25 6.25 0 1 0 12.5 0 a6.25 6.25 0 1 0 -12.5 0zM81.25 162.5 a6.25 6.25 0 1 0 12.5 0 a6.25 6.25 0 1 0 -12.5 0zM131.25 162.5 a6.25 6.25 0 1 0 12.5 0 a6.25 6.25 0 1 0 -12.5 0z" fill="url(#SvgjsLinearGradient6038)"></path><path d="M187.5 412.5L212.5 437.5L237.5 437.5L262.5 437.5M-12.5 362.5L12.5 362.5L37.5 362.5L62.5 362.5L87.5 362.5L112.5 387.5L137.5 387.5L162.5 412.5L187.5 412.5L212.5 412.5" stroke="url(#SvgjsLinearGradient6038)" stroke-width="4.17"></path><path d="M206.25 412.5 a6.25 6.25 0 1 0 12.5 0 a6.25 6.25 0 1 0 -12.5 0zM256.25 437.5 a6.25 6.25 0 1 0 12.5 0 a6.25 6.25 0 1 0 -12.5 0z" fill="url(#SvgjsLinearGradient6038)"></path><path d="M187.5 62.5L212.5 87.5L237.5 87.5L262.5 87.5L287.5 87.5M87.5 112.5L112.5 112.5L137.5 112.5L162.5 87.5L187.5 87.5M12.5 162.5L37.5 162.5M-12.5 187.5L12.5 162.5L37.5 137.5L62.5 137.5L87.5 112.5L112.5 87.5L137.5 87.5L162.5 62.5L187.5 62.5L212.5 62.5L237.5 62.5L262.5 62.5" stroke="url(#SvgjsLinearGradient6038)" stroke-width="4.17"></path><path d="M256.25 62.5 a6.25 6.25 0 1 0 12.5 0 a6.25 6.25 0 1 0 -12.5 0zM281.25 87.5 a6.25 6.25 0 1 0 12.5 0 a6.25 6.25 0 1 0 -12.5 0zM181.25 87.5 a6.25 6.25 0 1 0 12.5 0 a6.25 6.25 0 1 0 -12.5 0zM31.25 162.5 a6.25 6.25 0 1 0 12.5 0 a6.25 6.25 0 1 0 -12.5 0z" fill="url(#SvgjsLinearGradient6038)"></path><path d="M62.5 387.5L87.5 412.5L112.5 437.5L137.5 437.5M37.5 387.5L62.5 412.5L87.5 437.5M-12.5 387.5L12.5 387.5L37.5 387.5L62.5 387.5L87.5 387.5L112.5 412.5" stroke="url(#SvgjsLinearGradient6038)" stroke-width="4.17"></path><path d="M106.25 412.5 a6.25 6.25 0 1 0 12.5 0 a6.25 6.25 0 1 0 -12.5 0zM131.25 437.5 a6.25 6.25 0 1 0 12.5 0 a6.25 6.25 0 1 0 -12.5 0zM81.25 437.5 a6.25 6.25 0 1 0 12.5 0 a6.25 6.25 0 1 0 -12.5 0z" fill="url(#SvgjsLinearGradient6038)"></path><path d="M37.5 112.5L62.5 87.5L87.5 62.5M-12.5 162.5L12.5 137.5L37.5 112.5L62.5 112.5L87.5 87.5L112.5 62.5L137.5 62.5" stroke="url(#SvgjsLinearGradient6038)" stroke-width="4.17"></path><path d="M131.25 62.5 a6.25 6.25 0 1 0 12.5 0 a6.25 6.25 0 1 0 -12.5 0zM81.25 62.5 a6.25 6.25 0 1 0 12.5 0 a6.25 6.25 0 1 0 -12.5 0z" fill="url(#SvgjsLinearGradient6038)"></path></g></g><defs><mask id="SvgjsMask6036"><rect width="1440" height="560" fill="#ffffff"></rect></mask><radialGradient cx="0%" cy="50%" r="1466.97" gradientUnits="userSpaceOnUse" id="SvgjsRadialGradient6037"><stop stop-color="#0e2a47" offset="0"></stop><stop stop-color="rgba(11, 75, 158, 1)" offset="1"></stop></radialGradient><linearGradient x1="0" y1="280" x2="720" y2="280" gradientUnits="userSpaceOnUse" id="SvgjsLinearGradient6038"><stop stop-color="rgba(91, 34, 220, 1)" offset="0"></stop><stop stop-color="rgba(45, 244, 255, 1)" offset="0.5"></stop><stop stop-color="rgba(213, 165, 165, 1)" offset="1"></stop></linearGradient><mask id="SvgjsMask6039"><rect width="1440" height="560" fill="white"></rect><path d="M459.37 287.5 a3.13 3.13 0 1 0 6.26 0 a3.13 3.13 0 1 0 -6.26 0zM534.37 262.5 a3.13 3.13 0 1 0 6.26 0 a3.13 3.13 0 1 0 -6.26 0zM484.37 237.5 a3.13 3.13 0 1 0 6.26 0 a3.13 3.13 0 1 0 -6.26 0zM334.37 312.5 a3.13 3.13 0 1 0 6.26 0 a3.13 3.13 0 1 0 -6.26 0zM384.37 312.5 a3.13 3.13 0 1 0 6.26 0 a3.13 3.13 0 1 0 -6.26 0zM484.37 312.5 a3.13 3.13 0 1 0 6.26 0 a3.13 3.13 0 1 0 -6.26 0z" fill="black"></path><path d="M184.37 262.5 a3.13 3.13 0 1 0 6.26 0 a3.13 3.13 0 1 0 -6.26 0zM184.37 237.5 a3.13 3.13 0 1 0 6.26 0 a3.13 3.13 0 1 0 -6.26 0zM109.37 262.5 a3.13 3.13 0 1 0 6.26 0 a3.13 3.13 0 1 0 -6.26 0zM134.37 237.5 a3.13 3.13 0 1 0 6.26 0 a3.13 3.13 0 1 0 -6.26 0z" fill="black"></path><path d="M634.37 362.5 a3.13 3.13 0 1 0 6.26 0 a3.13 3.13 0 1 0 -6.26 0zM484.37 337.5 a3.13 3.13 0 1 0 6.26 0 a3.13 3.13 0 1 0 -6.26 0zM659.37 337.5 a3.13 3.13 0 1 0 6.26 0 a3.13 3.13 0 1 0 -6.26 0zM384.37 337.5 a3.13 3.13 0 1 0 6.26 0 a3.13 3.13 0 1 0 -6.26 0zM184.37 337.5 a3.13 3.13 0 1 0 6.26 0 a3.13 3.13 0 1 0 -6.26 0zM584.37 387.5 a3.13 3.13 0 1 0 6.26 0 a3.13 3.13 0 1 0 -6.26 0zM259.37 337.5 a3.13 3.13 0 1 0 6.26 0 a3.13 3.13 0 1 0 -6.26 0z" fill="black"></path><path d="M509.37 212.5 a3.13 3.13 0 1 0 6.26 0 a3.13 3.13 0 1 0 -6.26 0zM434.37 187.5 a3.13 3.13 0 1 0 6.26 0 a3.13 3.13 0 1 0 -6.26 0zM559.37 187.5 a3.13 3.13 0 1 0 6.26 0 a3.13 3.13 0 1 0 -6.26 0zM359.37 237.5 a3.13 3.13 0 1 0 6.26 0 a3.13 3.13 0 1 0 -6.26 0zM359.37 187.5 a3.13 3.13 0 1 0 6.26 0 a3.13 3.13 0 1 0 -6.26 0zM284.37 237.5 a3.13 3.13 0 1 0 6.26 0 a3.13 3.13 0 1 0 -6.26 0z" fill="black"></path><path d="M409.37 387.5 a3.13 3.13 0 1 0 6.26 0 a3.13 3.13 0 1 0 -6.26 0zM459.37 387.5 a3.13 3.13 0 1 0 6.26 0 a3.13 3.13 0 1 0 -6.26 0zM434.37 437.5 a3.13 3.13 0 1 0 6.26 0 a3.13 3.13 0 1 0 -6.26 0zM359.37 437.5 a3.13 3.13 0 1 0 6.26 0 a3.13 3.13 0 1 0 -6.26 0zM384.37 462.5 a3.13 3.13 0 1 0 6.26 0 a3.13 3.13 0 1 0 -6.26 0z" fill="black"></path><path d="M184.37 187.5 a3.13 3.13 0 1 0 6.26 0 a3.13 3.13 0 1 0 -6.26 0zM34.37 212.5 a3.13 3.13 0 1 0 6.26 0 a3.13 3.13 0 1 0 -6.26 0zM84.37 162.5 a3.13 3.13 0 1 0 6.26 0 a3.13 3.13 0 1 0 -6.26 0zM134.37 162.5 a3.13 3.13 0 1 0 6.26 0 a3.13 3.13 0 1 0 -6.26 0z" fill="black"></path><path d="M209.37 412.5 a3.13 3.13 0 1 0 6.26 0 a3.13 3.13 0 1 0 -6.26 0zM259.37 437.5 a3.13 3.13 0 1 0 6.26 0 a3.13 3.13 0 1 0 -6.26 0z" fill="black"></path><path d="M259.37 62.5 a3.13 3.13 0 1 0 6.26 0 a3.13 3.13 0 1 0 -6.26 0zM284.37 87.5 a3.13 3.13 0 1 0 6.26 0 a3.13 3.13 0 1 0 -6.26 0zM184.37 87.5 a3.13 3.13 0 1 0 6.26 0 a3.13 3.13 0 1 0 -6.26 0zM34.37 162.5 a3.13 3.13 0 1 0 6.26 0 a3.13 3.13 0 1 0 -6.26 0z" fill="black"></path><path d="M109.37 412.5 a3.13 3.13 0 1 0 6.26 0 a3.13 3.13 0 1 0 -6.26 0zM134.37 437.5 a3.13 3.13 0 1 0 6.26 0 a3.13 3.13 0 1 0 -6.26 0zM84.37 437.5 a3.13 3.13 0 1 0 6.26 0 a3.13 3.13 0 1 0 -6.26 0z" fill="black"></path><path d="M134.37 62.5 a3.13 3.13 0 1 0 6.26 0 a3.13 3.13 0 1 0 -6.26 0zM84.37 62.5 a3.13 3.13 0 1 0 6.26 0 a3.13 3.13 0 1 0 -6.26 0z" fill="black"></path></mask></defs></svg>